<?xml version="1.0" standalone="no"?>
<!DOCTYPE svg PUBLIC "-//W3C//DTD SVG 20010904//EN"
 "http://www.w3.org/TR/2001/REC-SVG-20010904/DTD/svg10.dtd">
<svg version="1.0" xmlns="http://www.w3.org/2000/svg"
 width="7637.000000pt" height="2881.000000pt" viewBox="0 0 7637.000000 2881.000000"
 preserveAspectRatio="xMidYMid meet">

<g transform="translate(0.000000,2881.000000) scale(0.100000,-0.100000)"
fill="#000000" stroke="none">
<path d="M16995 27744 c-479 -161 -845 -493 -1111 -1009 -96 -186 -166 -361
-251 -635 -2 -9 -19 13 -41 55 -104 194 -219 352 -377 514 -193 199 -381 334
-630 456 -303 148 -600 230 -1000 277 -133 15 -675 16 -819 1 -89 -9 -102 -13
-123 -37 -28 -33 -30 -79 -3 -106 21 -21 19 -21 169 -50 252 -50 517 -166 758
-332 279 -192 574 -496 777 -803 109 -163 108 -163 44 -125 -93 56 -371 187
-514 243 -841 332 -1747 383 -2659 151 -231 -58 -392 -111 -635 -207 -209 -83
-662 -301 -738 -357 -37 -26 -42 -35 -42 -68 0 -28 7 -45 25 -62 29 -27 37
-27 295 18 1012 176 1884 99 2588 -229 419 -195 802 -527 1032 -894 78 -123
170 -305 205 -407 47 -133 -104 -110 1255 -186 1166 -64 1181 -65 1206 -46 17
12 41 57 68 124 194 479 633 1139 1247 1874 158 190 241 285 543 621 99 112
110 131 95 175 -15 42 -35 50 -126 50 -418 0 -949 -222 -1402 -584 -113 -90
-356 -312 -377 -343 -38 -59 -32 -1 26 227 131 520 358 1040 663 1519 66 104
77 135 57 172 -9 16 -62 51 -72 48 -2 -1 -61 -21 -133 -45z m-325 -419 c0 -17
-14 -35 -47 -62 -27 -21 -93 -83 -148 -138 -298 -297 -448 -706 -525 -1430
-11 -110 -25 -216 -30 -235 -19 -72 -129 -151 -146 -106 -3 8 2 102 11 208 54
639 160 1017 376 1348 88 134 274 317 393 388 49 28 96 52 103 52 7 0 13 -11
13 -25z m-2971 -145 c263 -66 507 -169 691 -291 114 -75 278 -235 342 -334
187 -285 315 -690 335 -1056 6 -114 5 -118 -21 -163 -28 -49 -81 -85 -98 -68
-6 6 -29 108 -53 229 -90 454 -160 658 -295 858 -186 276 -574 551 -1063 755
-83 34 -95 53 -60 93 22 23 55 20 222 -23z m4066 -701 c4 -5 1 -24 -5 -40 -10
-24 -37 -42 -139 -94 -532 -271 -956 -629 -1278 -1081 -85 -118 -104 -137
-135 -132 -17 2 -24 10 -26 33 -6 58 176 322 383 555 155 176 391 374 593 499
127 78 344 183 479 232 123 43 120 43 128 28z m-5481 -364 c635 -74 1110 -336
1464 -807 89 -118 93 -155 29 -225 -39 -43 -68 -31 -149 59 -40 44 -138 142
-218 216 -461 428 -803 584 -1395 637 -33 3 -152 10 -265 15 -113 6 -238 13
-277 16 -68 6 -73 8 -73 30 0 37 36 52 150 62 176 15 590 14 734 -3z"/>
<path d="M28208 26370 c-543 -48 -982 -175 -1276 -367 -96 -62 -224 -198 -263
-278 -32 -66 -34 -75 -34 -175 0 -100 2 -109 34 -174 148 -301 683 -547 1371
-631 323 -39 762 -39 1090 0 371 45 701 135 953 261 191 96 354 240 418 370
32 64 34 75 34 169 0 97 -1 104 -39 180 -153 309 -657 537 -1396 631 -146 18
-738 27 -892 14z"/>
<path d="M44210 25619 c-378 -27 -693 -121 -833 -249 -70 -64 -97 -118 -97
-195 0 -77 26 -131 94 -193 121 -110 344 -190 661 -238 139 -21 542 -30 702
-15 364 34 658 126 794 249 121 109 133 250 31 364 -181 202 -755 319 -1352
277z"/>
<path d="M23820 24674 c0 -3 35 -21 78 -40 174 -79 609 -289 952 -461 641
-320 1155 -618 1604 -928 l173 -120 -4 -36 c-5 -33 1 -42 71 -120 114 -128
177 -210 234 -306 51 -85 103 -206 117 -272 l7 -34 -123 6 c-859 46 -1993 42
-3059 -9 -2321 -111 -4671 -438 -6845 -954 -421 -100 -577 -140 -601 -155 -18
-12 -36 -6 -165 57 -384 187 -457 216 -999 399 -263 89 -305 101 -731 203
-670 162 -1330 258 -2066 301 -260 16 -742 20 -729 8 4 -5 114 -22 244 -39
501 -67 1382 -205 1553 -243 24 -6 167 -33 318 -61 351 -65 1021 -216 1266
-285 105 -30 300 -83 435 -119 135 -36 324 -94 420 -129 96 -35 228 -82 292
-103 112 -37 118 -40 118 -66 0 -44 38 -72 175 -128 347 -142 858 -388 1190
-573 487 -271 842 -522 1095 -776 393 -394 449 -705 176 -989 -299 -312 -1000
-573 -2054 -767 -438 -80 -622 -103 -1067 -135 -2243 -159 -5027 -431 -7161
-699 -307 -39 -311 -39 -420 -26 -208 27 -350 36 -649 42 -589 11 -1119 -58
-1490 -195 -189 -70 -235 -89 -235 -97 0 -3 15 -4 33 -1 292 48 720 87 1152
106 542 24 1240 40 1244 29 2 -6 13 -22 25 -35 19 -22 50 -31 262 -75 817
-167 1551 -400 2079 -659 342 -168 558 -314 736 -496 147 -151 218 -269 259
-428 77 -302 -91 -568 -545 -866 -146 -95 -521 -280 -773 -379 -643 -256
-1599 -515 -2402 -652 -84 -14 -130 -47 -130 -93 l0 -26 -222 0 c-123 0 -353
-5 -513 -10 -159 -5 -608 -14 -998 -21 -389 -7 -704 -16 -700 -20 10 -9 296
-73 418 -93 208 -35 436 -50 750 -50 427 0 797 33 1159 104 l157 31 312 -5
c1670 -27 3215 -451 4338 -1191 290 -192 538 -394 784 -640 256 -255 473 -527
641 -803 103 -169 131 -202 171 -202 25 0 31 -7 57 -73 40 -101 182 -374 250
-482 147 -233 186 -290 251 -372 65 -81 70 -86 73 -61 4 32 -45 222 -83 321
-78 208 -235 454 -397 623 l-78 81 67 45 c137 91 268 154 473 228 1360 490
4376 579 7254 214 868 -110 1680 -257 2401 -434 1226 -302 2114 -666 2679
-1098 l98 -76 -37 -20 c-69 -39 -234 -151 -317 -216 -195 -152 -448 -435 -546
-610 -47 -83 -103 -210 -93 -210 5 0 103 89 218 197 115 109 267 252 339 318
71 65 228 217 350 337 l220 218 104 20 c498 97 1284 181 2045 220 897 45 2080
45 3215 0 2384 -96 5172 -392 7670 -816 2591 -439 4660 -972 5822 -1499 78
-36 154 -65 169 -65 14 0 38 9 52 20 l25 20 113 -54 c63 -30 258 -115 434
-189 176 -74 383 -163 460 -197 264 -117 295 -129 295 -118 0 22 -207 216
-295 275 -249 168 -619 300 -922 329 l-73 7 57 111 c603 1179 2528 2097 5572
2656 1801 331 4022 510 5821 470 386 -8 1007 -33 1057 -43 6 -1 -12 -33 -40
-72 -203 -278 -499 -834 -630 -1185 -59 -158 -52 -163 21 -15 182 371 452 806
705 1138 l90 117 74 0 c91 0 91 0 185 175 38 71 108 188 155 260 74 111 113
157 267 311 170 169 451 414 631 550 348 262 967 651 1120 704 32 11 69 29 80
40 51 47 497 245 871 385 353 133 412 152 810 259 263 71 504 129 624 151 409
75 626 117 640 127 10 6 2 7 -25 3 -22 -2 -89 -9 -150 -15 -597 -56 -716 -74
-1175 -176 -316 -70 -432 -101 -645 -170 -399 -131 -474 -159 -698 -260 -115
-52 -209 -94 -211 -94 -2 0 -6 47 -10 105 -49 765 -586 1601 -1476 2300 -674
529 -1578 1011 -2650 1414 -146 55 -266 107 -297 127 -76 52 -140 125 -176
202 -28 60 -32 78 -35 179 -3 81 1 134 13 190 76 347 367 807 854 1352 127
143 609 624 746 746 117 104 137 132 125 176 -8 26 -3 32 88 101 139 104 583
400 742 495 189 112 474 270 610 338 239 120 641 295 678 295 9 0 33 10 51 21
53 32 431 152 656 208 248 62 506 107 692 121 137 11 186 10 513 -16 67 -5 77
-4 97 15 12 12 31 21 42 21 11 0 23 5 26 10 3 6 -4 10 -15 10 -21 0 -21 2 9
54 57 101 225 350 335 496 327 434 751 925 1310 1518 111 117 205 223 210 236
13 33 0 73 -30 93 -53 34 -305 26 -512 -17 -350 -73 -689 -266 -978 -558
l-103 -103 -5 43 c-11 82 -25 364 -32 642 -7 266 -8 280 -29 304 -25 29 -79
32 -173 7 -333 -86 -650 -447 -902 -1028 l-47 -108 -28 78 c-70 197 -190 388
-335 533 -260 259 -607 412 -1056 465 -189 22 -235 20 -268 -10 -28 -25 -35
-70 -16 -105 5 -10 33 -31 62 -48 237 -134 438 -456 597 -956 33 -105 88 -311
117 -445 5 -22 0 -20 -58 21 -355 252 -861 453 -1351 538 -409 70 -881 73
-1322 9 -115 -16 -133 -21 -152 -44 -13 -15 -23 -39 -23 -55 0 -16 10 -41 23
-55 19 -22 37 -28 127 -41 791 -114 1569 -611 2202 -1405 107 -134 221 -295
218 -306 -2 -4 -44 -24 -94 -44 -129 -51 -416 -191 -579 -282 -427 -239 -843
-544 -1197 -877 l-126 -118 -74 25 c-773 253 -2294 549 -3850 747 -1942 248
-4529 423 -6395 431 -638 3 -777 9 -974 41 -383 60 -635 181 -670 318 -37 148
153 344 509 523 69 35 131 71 138 80 6 9 12 31 12 47 0 28 6 33 53 53 28 12
273 116 542 231 452 193 749 317 1255 524 354 145 600 252 600 261 0 4 -8 6
-17 4 -10 -3 -36 -8 -58 -12 -519 -81 -1076 -263 -1595 -521 -264 -132 -496
-269 -668 -394 l-122 -89 -33 19 c-35 20 -361 105 -652 169 -2017 446 -5880
870 -10120 1111 -3272 185 -6561 237 -8990 140 -602 -24 -922 -41 -953 -51
l-34 -11 -171 170 c-135 133 -214 201 -370 316 -247 183 -340 244 -592 388
-473 270 -1005 488 -1495 613 -179 45 -200 50 -200 39z m39145 -1114 c13 -21
-16 -76 -56 -105 -70 -51 -202 -196 -261 -285 -159 -241 -253 -515 -319 -930
-18 -107 -36 -212 -41 -232 -11 -46 -67 -108 -98 -108 -23 0 -23 1 -16 98 29
432 166 882 357 1172 73 111 251 294 348 358 67 45 76 48 86 32z m-2150 -61
c147 -93 351 -275 467 -416 248 -303 405 -695 448 -1112 15 -153 13 -394 -4
-435 -15 -36 -55 -71 -68 -58 -4 4 -19 104 -33 222 -58 495 -107 693 -229 934
-144 283 -328 517 -576 729 -58 49 -108 97 -111 106 -10 25 11 61 36 61 11 0
43 -14 70 -31z m3645 -217 c0 -42 -26 -60 -142 -99 -267 -89 -477 -256 -758
-603 -213 -262 -224 -275 -252 -278 -30 -4 -44 23 -34 63 7 28 189 285 283
399 179 218 303 334 451 424 137 83 254 120 385 121 l67 1 0 -28z m-5245 -662
c105 -11 226 -30 270 -41 218 -55 495 -201 730 -384 176 -137 406 -413 390
-467 -9 -29 -34 -58 -51 -58 -6 0 -51 45 -99 99 -47 55 -136 148 -198 207
-201 193 -362 304 -622 430 -203 99 -328 139 -490 159 -166 20 -205 30 -205
54 0 27 11 33 50 27 19 -2 121 -14 225 -26z"/>
<path d="M53384 24130 c-468 -42 -835 -239 -926 -498 -29 -82 -22 -215 15
-292 106 -221 399 -385 800 -447 155 -24 467 -24 597 0 308 57 507 145 656
292 91 90 128 155 146 255 19 110 -9 213 -90 324 -117 161 -415 305 -725 350
-129 19 -355 27 -473 16z"/>
<path d="M8585 20154 c-415 -43 -729 -156 -898 -325 -93 -93 -122 -156 -122
-269 0 -71 4 -94 27 -143 130 -276 628 -461 1243 -460 499 0 898 114 1114 318
139 132 174 277 103 429 -40 85 -99 146 -205 216 -149 98 -374 175 -632 215
-106 17 -528 29 -630 19z"/>
<path d="M66706 17769 c-596 -34 -1065 -223 -1247 -502 -112 -172 -112 -385 1
-571 225 -371 866 -689 1605 -795 238 -35 403 -44 665 -38 406 9 693 64 961
181 322 142 500 356 501 603 0 98 -18 165 -71 262 -255 462 -1062 809 -2006
861 -198 11 -208 11 -409 -1z m599 -307 c258 -50 405 -127 405 -213 0 -89
-144 -162 -405 -206 -167 -28 -574 -25 -739 6 -146 26 -243 54 -317 91 -62 32
-119 90 -119 121 0 84 129 156 357 198 155 29 152 29 443 26 221 -2 283 -6
375 -23z"/>
<path d="M7190 15696 c-424 -49 -727 -177 -800 -338 -90 -197 106 -386 500
-481 385 -94 906 -96 1295 -5 390 91 587 259 530 454 -13 45 -28 69 -73 113
-31 32 -78 68 -103 82 -127 71 -321 129 -549 165 -142 22 -639 28 -800 10z"/>
<path d="M71466 14630 c-303 -48 -497 -198 -537 -414 -28 -155 53 -339 217
-495 186 -177 447 -300 758 -357 125 -24 158 -26 296 -21 181 6 270 26 398 89
216 106 317 312 253 514 -66 204 -240 385 -498 517 -126 64 -278 118 -418 147
-115 24 -374 35 -469 20z"/>
<path d="M4095 11390 c-494 -41 -851 -177 -946 -361 -35 -68 -32 -158 6 -228
94 -171 407 -301 850 -353 165 -19 589 -16 750 6 537 72 838 240 838 467 0
220 -305 386 -834 454 -142 19 -517 27 -664 15z"/>
<path d="M15689 7819 c-170 -11 -386 -43 -524 -79 -336 -87 -518 -224 -518
-390 0 -124 80 -219 258 -306 158 -77 327 -122 605 -161 182 -25 715 -25 885
0 359 54 601 139 728 256 180 167 133 360 -121 494 -280 146 -793 219 -1313
186z"/>
<path d="M24710 7770 c-695 -42 -1282 -236 -1590 -526 -473 -446 -220 -993
595 -1285 293 -104 589 -163 955 -189 634 -44 1308 65 1754 284 182 89 275
154 391 270 114 114 172 211 201 332 110 466 -462 912 -1361 1063 -276 47
-670 68 -945 51z m272 -355 c301 -53 319 -194 43 -325 -229 -108 -557 -172
-885 -172 -191 0 -302 15 -388 52 -57 24 -102 70 -102 101 0 132 358 288 786
343 153 19 437 20 546 1z"/>
<path d="M56869 6800 c-392 -21 -800 -100 -1119 -216 -127 -47 -378 -171 -469
-232 -241 -162 -385 -344 -426 -537 -18 -88 -18 -122 0 -210 50 -241 287 -465
642 -606 372 -148 836 -220 1318 -205 1193 36 2140 521 2138 1095 0 153 -63
289 -193 420 -340 344 -1073 534 -1891 491z m169 -320 c194 -39 252 -117 162
-214 -91 -99 -345 -194 -655 -247 -172 -30 -496 -37 -625 -15 -236 41 -310
136 -187 241 224 192 912 316 1305 235z"/>
<path d="M45190 4720 c-247 -34 -431 -110 -534 -220 -69 -74 -91 -128 -91
-225 0 -71 4 -88 34 -150 143 -289 689 -515 1250 -515 316 0 546 59 708 181
143 107 183 277 102 429 -117 221 -457 404 -889 480 -140 25 -465 36 -580 20z"/>
</g>
</svg>
